<mxfile host="app.diagrams.net" agent="Mozilla/5.0 (Windows NT 10.0; Win64; x64) AppleWebKit/537.36 (KHTML, like Gecko) Chrome/137.0.0.0 Safari/537.36" version="27.1.3">
  <diagram name="第 1 页" id="MxCnz9sl3STO58roB_Hc">
    <mxGraphModel dx="1426" dy="743" grid="1" gridSize="10" guides="1" tooltips="1" connect="1" arrows="1" fold="1" page="1" pageScale="1" pageWidth="1654" pageHeight="2336" math="0" shadow="0">
      <root>
        <mxCell id="0" />
        <mxCell id="1" parent="0" />
        <mxCell id="lvNZ2ctILBnJvPrkH7Vi-1" value="" style="swimlane;startSize=0;" vertex="1" parent="1">
          <mxGeometry x="160" y="80" width="800" height="600" as="geometry">
            <mxRectangle x="160" y="80" width="50" height="40" as="alternateBounds" />
          </mxGeometry>
        </mxCell>
        <mxCell id="lvNZ2ctILBnJvPrkH7Vi-3" value="" style="swimlane;startSize=0;" vertex="1" parent="lvNZ2ctILBnJvPrkH7Vi-1">
          <mxGeometry x="80" y="440" width="680" height="120" as="geometry">
            <mxRectangle x="60" y="360" width="50" height="40" as="alternateBounds" />
          </mxGeometry>
        </mxCell>
        <mxCell id="lvNZ2ctILBnJvPrkH7Vi-4" value="基础层" style="text;html=1;align=center;verticalAlign=middle;whiteSpace=wrap;rounded=0;" vertex="1" parent="lvNZ2ctILBnJvPrkH7Vi-1">
          <mxGeometry x="50" y="482.5" width="20" height="35" as="geometry" />
        </mxCell>
      </root>
    </mxGraphModel>
  </diagram>
</mxfile>
